<svg xmlns="http://www.w3.org/2000/svg" viewBox="0 0 1024 1024" aria-hidden="true" focusable="false">
  <path d="M771.413 529.92l-64.853-122.88h133.12l-68.267 122.88zM252.587 366.080l64.853 122.88h-129.707l64.853-122.88zM252.587 349.013c-6.827 0-10.24 3.413-13.653 10.24l-64.853 119.467c-3.413 6.827-3.413 13.653 0 17.067s6.827 6.827 13.653 6.827h133.12c6.827 0 10.24-3.413 13.653-6.827s3.413-10.24 0-17.067l-64.853-119.467c-3.413-6.827-10.24-10.24-17.067-10.24zM215.040 471.893l37.547-68.267 37.547 68.267h-75.093zM836.267 389.973h-133.12c-6.827 0-10.24 3.413-13.653 6.827s-3.413 10.24 0 17.067l64.853 122.88c6.827 10.24 23.893 10.24 30.72 0l64.853-122.88c3.413-6.827 3.413-10.24 0-17.067-3.413-3.413-6.827-6.827-13.653-6.827zM733.867 424.107h75.093l-37.547 68.267-37.547-68.267zM614.4 369.493h-180.907c-3.413 0-10.24 3.413-13.653 6.827s-3.413 10.24-3.413 13.653l6.827 37.547-6.827 109.227-40.96 17.067c-6.827 3.413-10.24 13.653-6.827 23.893s13.653 10.24 20.48 6.827l47.787-20.48c6.827-3.413 10.24-10.24 13.653-13.653l6.827-119.467c0 0 0-3.413 0-3.413l-3.413-20.48h160.427c10.24 0 17.067-6.827 17.067-17.067 0-13.653-6.827-20.48-17.067-20.48zM614.4 424.107h-174.080l-6.827 112.64 184.32-27.307c6.827 0 13.653-6.827 13.653-17.067v-51.2c0-10.24-6.827-17.067-17.067-17.067zM491.52 335.36c0-18.851-15.282-34.133-34.133-34.133s-34.133 15.282-34.133 34.133c0 18.851 15.282 34.133 34.133 34.133s34.133-15.282 34.133-34.133zM628.053 335.36c0-18.851-15.282-34.133-34.133-34.133s-34.133 15.282-34.133 34.133c0 18.851 15.282 34.133 34.133 34.133s34.133-15.282 34.133-34.133zM256 478.72c0 0-3.413 0 0 0-10.24 0-17.067 6.827-17.067 17.067 17.067 139.947 133.12 242.347 269.653 242.347 88.747 0 170.667-40.96 221.867-112.64 6.827-6.827 3.413-17.067-3.413-23.893s-17.067-3.413-23.893 3.413c-44.373 61.44-116.053 98.987-194.56 98.987-122.88 0-221.867-92.16-235.52-211.627 0-6.827-10.24-13.653-17.067-13.653zM515.413 157.867c-88.747 0-170.667 40.96-221.867 112.64-6.827 6.827-3.413 17.067 3.413 23.893s17.067 3.413 23.893-3.413c44.373-61.44 116.053-98.987 194.56-98.987 122.88 0 221.867 92.16 235.52 211.627 0 10.24 10.24 17.067 17.067 13.653 10.24 0 17.067-10.24 13.653-17.067-10.24-139.947-126.293-242.347-266.24-242.347z" transform="matrix(1 0 0 -1 0 960)"/>
</svg>
